<?xml version="1.0" encoding="UTF-8" standalone="no"?>
<svg
   width="1024"
   height="1024"
   viewBox="0 0 1024 1024"
   version="1.1"
   id="svg4"
   sodipodi:docname="VALKYRIE_LOGO.svg"
   inkscape:version="1.4.2 (ebf0e940d0, 2025-05-08)"
   xmlns:inkscape="http://www.inkscape.org/namespaces/inkscape"
   xmlns:sodipodi="http://sodipodi.sourceforge.net/DTD/sodipodi-0.dtd"
   xmlns="http://www.w3.org/2000/svg"
   xmlns:svg="http://www.w3.org/2000/svg">
  <defs
     id="defs4" />
  <sodipodi:namedview
     id="namedview4"
     pagecolor="#ffffff"
     bordercolor="#000000"
     borderopacity="0.25"
     inkscape:showpageshadow="2"
     inkscape:pageopacity="0.0"
     inkscape:pagecheckerboard="0"
     inkscape:deskcolor="#d1d1d1"
     inkscape:zoom="2.2158555"
     inkscape:cx="460.54448"
     inkscape:cy="418.57423"
     inkscape:window-width="2560"
     inkscape:window-height="1515"
     inkscape:window-x="0"
     inkscape:window-y="0"
     inkscape:window-maximized="1"
     inkscape:current-layer="svg4" />
  <path
     d="m 483.95,707.18 c -17.39,-10.72 -35.12,-23.89 -47.42,-35.24 -3.32,-3.06 -8.22,-7.56 -10.89,-10 -10.58,-9.65 -25.19,-28.1 -34.79,-43.94 -9.63,-15.87 -10.98,-20.24 -9.78,-31.66 0.45,-4.31 0.85,-9.01 0.88,-10.44 l 0.05,-2.59 -11.25,-0.65 c -20.54,-1.17 -42.09,-8.16 -59.61,-19.35 -2.95,-1.88 -5.16,-3.63 -4.91,-3.87 0.24,-0.25 3.11,-0.92 6.36,-1.49 0.93,-0.16 1.82,-0.33 2.66,-0.51 11.45,-2.2 13.57,-3.73 6.75,-4.82 -7.22,-1.16 -17.04,-5.05 -26.71,-10.3 -7.5,-4.15 -15.05,-9.26 -22.03,-14.98 -4.77,-4.19 -11.26,-10.58 -11.26,-11.19 0,-0.27 2.21,-0.41 5.38,-0.38 5.37,0.42 13.51,0.22 14.06,-0.67 0.05,-0.08 0.06,-0.18 0.03,-0.28 0.15,-0.46 -0.69,-1.05 -2.64,-1.72 l -0.03,-0.01 -0.02,-0.01 h -0.01 l -0.02,-0.01 c -2.44,-0.87 -7.58,-3.73 -12.95,-7.08 -4.84,-3.02 -9.89,-6.43 -13.3,-9.12 -7.12,-5.59 -18.35,-17.68 -23.3,-25.08 -1.94,-2.91 -3.8,-5.52 -4.12,-5.79 -1.1,-0.95 -5.08,-8.77 -5.08,-10 0,-0.72 0.74,-1 1.75,-0.69 8.88,2.77 23.42,6.22 23.77,5.65 0.25,-0.39 -1.39,-1.98 -3.63,-3.53 -9.08,-6.3 -21.04,-21.28 -29.37,-36.79 -3.8,-7.08 -9.91,-23.45 -11.91,-31.89 -0.98,-4.14 1.1,-3.56 11.38,3.19 13.78,9.05 16.38,9.35 10.31,1.18 -8.37,-11.25 -15.6,-26.7 -20.65,-44.12 -2.95,-10.16 -5.89,-41.02 -3.9,-40.99 0.41,0.01 2.55,1.7 4.75,3.77 7.91,7.44 16.18,14.22 17.34,14.22 0.75,0 0.29,-1.79 -1.24,-4.8 -3.37,-6.66 -9.38,-24.96 -11.37,-34.63 -1.14,-5.56 -1.67,-13.2 -1.68,-24.57 -0.03,-15.98 1.81,-34 3.47,-34 0.44,0 2.25,2.36 4,5.25 1.76,2.89 5.05,7.73 7.3,10.75 2.26,3.02 4.23,5.69 4.39,5.92 0.16,0.23 0.56,0.15 0.88,-0.18 0.33,-0.33 -0.4,-4.56 -1.61,-9.42 -4.23,-16.91 -3.78,-43.8 1.02,-61.82 3.88,-14.54 16.65,-43.33 19.63,-44.24 0.72,-0.22 1.39,2.13 1.83,6.45 1.95,18.67 10.45,48.71 19.75,69.79 2.18,4.95 4.49,10.35 5.13,12 0.64,1.65 1.41,3.23 1.72,3.5 0.31,0.27 2.95,5 5.87,10.5 4.64,8.75 15.34,26.16 18.74,30.5 0.64,0.83 4.68,6.23 8.96,12 4.28,5.77 8.03,10.73 8.33,11 0.64,0.59 12.26,13.98 16.49,19 7.07,8.39 35.67,36.02 48.55,46.9 10.66,9 10.64,8.99 21.59,17.67 14.29,11.34 19.62,16.99 23.3,24.69 3.81,7.99 6.08,15.13 6.11,19.24 0.02,1.65 0.45,3.66 0.96,4.47 0.8,1.26 1.27,1.17 3.24,-0.61 5.76,-5.22 25.4,-16.22 36.46,-20.42 2.01,-0.77 2.34,-1.58 2.34,-5.78 v -4.89 l 6.75,-1.61 c 17.12,-4.09 39.61,-4.56 58.15,-1.22 8.36,1.51 10.94,1.97 11.74,3.41 0.36,0.65 0.36,1.49 0.36,2.71 v 0.07 c 0,4.95 1.42,7.03 5.74,8.41 6.6,2.12 20.89,9.92 28.44,15.53 4.02,2.98 7.59,5.43 7.92,5.43 0.34,0 0.89,-2.6 1.22,-5.78 0.63,-6.02 4.29,-16.91 7.38,-21.95 3.37,-5.47 6.79,-8.81 19.3,-18.77 24.99,-19.91 44.35,-37.03 63.67,-56.31 12.38,-12.36 33.83,-38.14 40.92,-49.19 1.59,-2.48 3.19,-4.73 3.56,-5 1.88,-1.42 18.16,-29.44 23.82,-41 6.61,-13.5 14.22,-34.67 20.14,-56 1.29,-4.66 2.7,-11.07 3.79,-16.98 0.81,-4.3 1.46,-8.27 1.72,-10.77 0.36,-3.44 0.92,-6.25 1.24,-6.25 0.32,0 1.65,1.24 2.95,2.75 1.03,1.19 2.04,2.53 3.03,4.02 2.94,5.3 6.26,11.94 8.26,16.86 1.11,2.72 2.15,5.55 3.11,8.45 5.27,16.54 8.43,35.79 7.46,50.37 -0.51,7.74 -3.48,25.1 -5.26,30.8 -0.33,1.06 -0.03,1.74 0.77,1.73 0.73,-0.02 4.45,-4.74 8.27,-10.5 3.82,-5.77 7.26,-10.48 7.64,-10.48 1.24,0 1.76,2.61 2.97,15.16 2.7,27.78 -1.31,54.61 -11.32,75.63 -1.64,3.46 -2.72,6.56 -2.4,6.88 0.61,0.61 11.49,-8.71 17.57,-15.04 1.87,-1.95 3.79,-3.32 4.25,-3.03 1.14,0.7 1.03,14.31 -0.19,22.9 -3.11,21.87 -10.96,42.89 -22.37,59.9 -2.53,3.78 -4.6,7.03 -4.6,7.23 0,1.13 3,-0.28 13,-6.13 6.11,-3.58 11.33,-6.5 11.6,-6.5 1.67,0 -4.09,18.57 -9.34,30.12 -6.23,13.69 -22.53,34.72 -32.53,41.96 -4.29,3.11 -3.78,4.23 1.33,2.89 9.64,-2.54 17.64,-4.82 19.34,-5.52 6.42,-2.63 -7.13,18.26 -20.86,32.17 -9.95,10.08 -17.43,15.59 -31.61,23.29 -8.75,4.74 -7.91,5.69 4.16,4.76 9.28,-0.71 9.86,0.06 4.16,5.51 -6.32,6.04 -20.22,16.82 -21.69,16.82 -0.77,0 -1.54,0.4 -1.73,0.88 -0.81,2.14 -23.64,12.16 -33.75,14.81 -3.12,0.82 0.98,2.52 8.55,3.54 4.33,0.58 8.24,1.38 8.69,1.78 0.71,0.63 -5.44,5.05 -11.82,8.49 -5.04,2.73 -19.79,8.55 -27.5,10.87 -10.85,3.26 -19.47,4.61 -29.38,4.62 l -7.88,0.01 0.64,3.99 c 0.35,2.19 0.92,7.94 1.26,12.76 l 0.63,8.77 -4.23,8.41 c -3.82,7.58 -14.18,23.82 -16.01,25.07 -0.4,0.28 -1.28,1.54 -1.95,2.81 -4.19,7.97 -33.6,38.01 -47.66,48.7 -3.26,2.47 -7.04,5.42 -8.42,6.54 -4.03,3.31 -27.3,18.55 -31.84,20.87 l -4.16,2.12 v -2.56 c 0,-2.63 1.5,-12.05 8.99,-56.48 0.51,-3.03 2.09,-14.23 3.51,-24.89 2.79,-20.99 4.28,-29.11 5.34,-29.11 0.92,0 26.51,-13.98 27.15,-14.83 0.28,-0.38 2.54,-2 5.01,-3.59 6.73,-4.35 21.43,-17.05 25.56,-22.09 2,-2.44 4.03,-6.14 4.52,-8.21 1.35,-5.86 1.16,-23.28 -0.26,-23.28 -0.65,0 -4.59,1.33 -8.75,2.97 -21.59,8.45 -46.28,16.13 -62.96,19.58 -4.18,0.86 -8.51,2.39 -9.61,3.39 -1.1,0.99 -4.38,3.97 -7.28,6.61 -0.43,0.4 -0.85,0.77 -1.24,1.13 -4.33,3.95 -6.19,5.65 -7.94,5.54 -1.49,-0.09 -2.89,-1.47 -5.64,-3.88 -11.79,-10.33 -12.86,-10.96 -22.6,-13.2 -17.91,-4.12 -45.58,-12.77 -61.48,-19.23 -0.43,-0.17 -0.85,-0.34 -1.24,-0.5 -4.59,-1.87 -6.95,-2.84 -8.1,-2.04 -1.23,0.85 -1.08,3.7 -0.75,9.61 0.02,0.48 0.05,0.98 0.08,1.5 0.37,6.87 1.19,12.58 2.05,14.25 4.23,8.15 21.38,23.26 37.64,33.17 4.67,2.85 9.17,5.59 10,6.09 0.83,0.51 4.46,2.32 8.08,4.03 l 6.58,3.12 1.21,10.68 c 0.67,5.87 2.06,15.4 3.09,21.18 1.04,5.78 3.07,18.38 4.52,28 1.45,9.62 3.24,20.42 3.99,24 3.23,15.43 4.85,27.08 3.9,28.03 -0.63,0.63 -4.3,-1.09 -10.42,-4.85 z m -3.32,-18.43 c -0.33,-1.24 -1.29,-6.53 -2.14,-11.75 -0.85,-5.22 -2.17,-12.88 -2.94,-17 -0.76,-4.12 -2.12,-12.22 -3.02,-18 -0.89,-5.78 -2.29,-14.78 -3.1,-20 -2.29,-14.81 -2.25,-14.68 -5.6,-16.07 -7.9,-3.27 -27.88,-16.94 -38.94,-26.64 -5.9,-5.18 -15.46,-17.07 -18.43,-22.95 l -2.96,-5.84 0.22,-21 c 0.12,-11.75 0.78,-24.08 1.5,-28 0.59,-3.25 0.76,-5.15 1.8,-6.04 1.4,-1.21 4.38,-0.57 12.11,1.07 0.89,0.19 1.85,0.4 2.87,0.61 10.7,2.25 14.38,2.87 31.71,5.33 l 12.22,1.74 3.38,-2.86 c 1.87,-1.57 12.27,-10.5 23.11,-19.85 10.85,-9.35 20.09,-17.13 20.55,-17.3 0.62,-0.23 31.36,25.74 34.03,28.75 3.04,3.42 13.22,11.05 14.76,11.05 2.41,0 21.61,-3.11 40.97,-6.64 7.82,-1.42 14.85,-2.35 15.61,-2.06 2.23,0.85 4.16,18.36 4.16,37.7 v 17.5 l -3.83,7 c -7.89,14.42 -33.15,36.2 -54.35,46.86 -2.85,1.43 -5.41,2.97 -5.68,3.42 -0.72,1.16 -2.32,10.99 -10.66,65.5 l -0.03,0.15 c -1.72,11.26 -2.4,15.68 -1.09,16.37 0.84,0.45 2.52,-0.66 5.27,-2.49 l 0.06,-0.04 c 27.64,-18.34 58.73,-49.98 73.98,-75.27 3.93,-6.52 5.96,-9.68 6.85,-13.13 0.93,-3.62 0.6,-7.58 -0.12,-16.12 v 0 c -0.06,-0.75 -0.13,-1.54 -0.2,-2.37 -0.77,-9.28 -1.18,-17.28 -0.91,-17.76 0.27,-0.49 5.23,-0.6 11.1,-0.24 7.31,0.45 13.59,0.19 20.19,-0.82 10.24,-1.56 24.53,-5.86 26.81,-8.07 1.17,-1.13 0.7,-1.52 -3,-2.47 -9.07,-2.35 -40.25,-13.16 -42.28,-14.66 -2,-1.49 -1.87,-1.54 2.39,-0.98 24.04,3.16 46.86,0.95 64.5,-6.27 7.42,-3.03 18.87,-8.84 21.21,-10.76 l 2.79,-2.28 -4,-0.05 c -5.84,-0.07 -20.5,-0.94 -33.72,-1.91 -8.4,-0.65 -16.73,-1.4 -23.43,-2.1 -11.08,-1.37 -14.43,-2.75 -7.04,-2.98 h 0.28 c 0.83,0 1.66,-0.01 2.5,-0.03 10.53,-0.05 22.98,-1.67 35.35,-4.38 17.06,-3.66 33.55,-9.32 45.32,-15.98 11.27,-6.37 31.24,-22.92 31.24,-25.87 0,-0.58 -0.13,-0.84 -1.83,-0.53 -1.5,0.27 -4.23,0.97 -9.17,2.27 -0.64,0.17 -1.28,0.33 -1.92,0.5 -5.44,1.37 -13.72,3.3 -19.58,4.54 -3.89,0.82 -7.9,1.7 -10.94,2.39 -8.65,1.7 -17.04,3.12 -24.84,4.2 -2.88,0.37 -5.87,0.75 -8.83,1.1 -5.81,0.65 -11.16,1.07 -15.89,1.23 -10.31,0.35 -12.44,0.22 -9,-0.52 2.82,-0.62 5.57,-1.23 8.24,-1.84 9.82,-1.97 23.18,-5.46 32.78,-8.58 3.63,-1.15 6.55,-2.2 8.63,-3.13 1.7,-0.76 3.63,-1.38 4.33,-1.4 h 0.03 0.01 c 2.3,0 27.31,-13.06 33.89,-17.69 12.2,-8.6 26.1,-24.03 34.96,-38.8 4.3,-7.17 4.11,-9.04 -0.62,-5.94 -4.94,3.24 -32.65,17.07 -40.75,20.34 -4.4,1.78 -9.8,4.05 -12,5.05 -2.23,1.01 -8.83,3.37 -16.31,5.91 v 0 c -7.81,2.65 -16.55,5.47 -22.19,7.11 -2.12,0.61 -4.35,1.27 -6.19,1.83 -1.9,0.56 -3.49,1.03 -4.31,1.28 -0.97,0.29 -1.95,0.58 -2.92,0.86 -0.74,0.17 -1.47,0.32 -2.08,0.42 -10.5,1.73 -10.47,1.45 0.34,-2.76 l 1.92,-0.75 c 3.53,-1.34 7.43,-2.94 11.86,-4.9 v 0 c 7.3,-3.15 14.22,-6.4 20.75,-9.74 6.23,-3.09 12.46,-6.59 18.46,-10.34 h 0.01 c 10.04,-6.18 18.8,-12.61 26.18,-19.24 5.97,-5.22 10.96,-10.38 14.5,-15.14 1.64,-2.2 3.77,-4.87 4.73,-5.94 3.11,-3.45 9.87,-15.32 12.96,-22.78 3.28,-7.91 7.87,-24.36 7.03,-25.2 -0.28,-0.29 -5.75,4.3 -12.14,10.2 -19.52,18.01 -27.35,24.22 -46.25,36.7 -7.51,4.96 -15.16,9.89 -17,10.95 -1.84,1.06 -7.18,4.17 -11.85,6.91 -0.23,0.13 -0.47,0.27 -0.71,0.41 -5.15,2.93 -17.53,9.21 -28.51,14.57 -7.04,3.3 -12.58,5.66 -13.34,5.5 -0.84,-0.18 1.76,-2.07 5.77,-4.22 9.89,-5.29 21.51,-12.64 32.87,-20.68 v 0 c 7.7,-5.44 15.29,-11.22 22.27,-17.01 11.28,-9.36 28.73,-27.47 35.16,-36.48 12.16,-17.03 21.86,-38.48 25.41,-56.18 2.25,-11.19 3.64,-25.53 2.64,-27.15 -0.66,-1.07 -7.23,7.17 -16.26,20.4 -2.26,3.3 -4.93,6.9 -5.95,8 -1.02,1.1 -4.25,5.15 -7.18,9 -22.05,28.94 -63.7,67.16 -93.17,85.51 -3.03,1.88 -5.72,3.72 -6,4.08 -1.19,1.56 -13.38,8.86 -13.91,8.33 -0.32,-0.32 0.31,-1.24 1.41,-2.03 1.1,-0.8 3.52,-2.68 5.39,-4.17 1.86,-1.5 4.11,-3.13 5,-3.63 0.88,-0.51 1.83,-1.18 2.11,-1.51 0.28,-0.32 3.87,-3.28 7.99,-6.58 18.87,-15.11 42.17,-38.13 56.66,-56 8.49,-10.48 16.12,-21.07 22.34,-31 23.75,-37.97 31.32,-77.63 21.67,-113.5 -2.23,-8.31 -3.84,-10.38 -4.48,-5.79 -0.41,2.97 -5.95,22.69 -7.11,25.29 -0.48,1.1 -2.79,6.87 -5.11,12.82 -7.59,19.4 -27.48,56.44 -34.21,63.71 -0.96,1.04 -1.75,2.25 -1.75,2.7 0,0.45 -1.46,2.59 -3.25,4.75 -1.79,2.17 -6.42,8.1 -10.3,13.19 -18.31,24.04 -55.17,60.49 -81.72,80.83 -1.44,1.1 -4.96,3.8 -7.83,6 -13,9.96 -17.27,14.16 -20.84,20.5 -7.93,14.05 -9.62,25.98 -5.79,40.75 1.32,5.09 2.3,9.25 2.19,9.25 -0.12,0 -5.11,-4.84 -11.09,-10.76 -5.98,-5.91 -11.77,-11.44 -12.87,-12.27 -7.75,-5.89 -27.1,-15.88 -35.68,-18.43 -5.99,-1.78 -6.78,-2.68 -6.8,-7.68 -0.02,-2.48 -0.56,-3.85 -1.7,-4.29 -4.74,-1.82 -28.71,-2.84 -40.54,-1.73 -11.56,1.09 -15.08,1.37 -16.27,3.17 -0.56,0.86 -0.59,2.05 -0.71,3.84 -0.29,4.53 -0.42,4.69 -4.8,6.24 -13.65,4.82 -30.63,13.68 -38,19.83 -8.92,7.44 -16.1,14.16 -19.06,17.85 -3.83,4.76 -5,3.7 -2.51,-2.26 0.85,-2.03 1.83,-7.85 2.19,-12.94 0.77,-10.93 -0.38,-16.82 -5.34,-27.3 -3.78,-8 -8.6,-12.84 -28.78,-28.9 -20.51,-16.33 -32.77,-27.57 -55.03,-50.49 -12.75,-13.13 -19.09,-20.09 -23.97,-26.35 -1.65,-2.11 -3.94,-5.01 -5.08,-6.44 -19.72,-24.59 -38.92,-56.53 -48.3,-80.36 -4.08,-10.35 -8.55,-23.86 -11.25,-33.98 -1.28,-4.81 -2.64,-8.75 -3.02,-8.75 -0.74,0 -2.75,8.32 -5.28,21.86 -3.09,16.49 -1.48,39.2 4.08,57.64 2.13,7.06 9.57,24.74 11.08,26.32 0.7,0.73 1.27,1.75 1.27,2.26 0,1.38 15.29,25.75 19.45,31.01 1.13,1.43 3.4,4.35 5.05,6.48 8.9,11.52 22.85,26.46 38.12,41.11 11.7,11.46 21.33,20.08 30.71,27.42 0.98,0.81 1.95,1.6 2.92,2.39 14.46,11.69 14.3,12.51 -0.68,2.42 -3.44,-2.42 -7.38,-5.17 -11.07,-7.72 C 313.02,354.6 296.35,340.52 274.96,319.07 253,297.06 243.29,285.42 226.92,261.5 218.81,249.66 217.53,248 216.5,248 c -0.74,0 -0.39,6.47 0.54,14.06 0.51,4.18 1.21,8.7 1.99,12.67 0.42,2.14 0.88,4.25 1.38,6.33 0.78,3.57 1.6,6.84 2.41,9.45 1.66,5.41 3.83,10.86 6.47,16.33 6.09,13.11 14.49,25.46 25.91,38.25 6.31,7.21 13.33,14.28 20.99,21.11 6.78,6.27 12.19,10.69 19.79,16.07 6.38,4.72 13.06,9.27 20.02,13.61 14.57,9.09 17.31,10.76 22.78,13.92 3.15,1.81 4.63,3 3.29,2.62 -1.34,-0.37 -3.81,-1.51 -5.5,-2.54 -1.69,-1.03 -3.62,-1.87 -4.29,-1.88 -0.91,0 -5.65,-2.15 -11.97,-5.28 -14.1,-7.17 -29.7,-15.51 -36.81,-19.95 -21.26,-13.25 -45.52,-32.33 -64.89,-51.02 -3.28,-3.16 -6.38,-5.75 -6.9,-5.75 -1.14,0 -0.82,3.23 0.46,8.02 1.24,5.05 3.52,11.32 6.37,17.7 v 0 c 0.85,1.96 1.75,3.9 2.68,5.78 1.68,3.41 3.38,6.54 5.17,9.51 1.36,2.31 2.75,4.5 4.14,6.49 1.29,1.86 3.08,4.1 5.19,6.53 2.73,3.26 5.8,6.54 9.34,10.05 1.25,1.24 2.52,2.46 3.81,3.65 4.46,4.27 8.86,8.1 12.24,10.56 2.24,1.62 4.69,3.29 7.3,4.99 10.01,6.82 21.62,13.27 35.85,19.99 7.35,3.58 14.69,6.85 21.51,9.58 4.64,2.04 8.72,3.92 9.92,4.59 l 2.81,1.57 -3,-0.59 c -9.91,-1.95 -34.79,-9.7 -51.69,-15.93 -2.79,-1.05 -5.57,-2.13 -8.44,-3.27 -9.66,-3.94 -16.25,-6.71 -22.25,-9.48 v 0 c -6.33,-3 -13.78,-6.78 -21.23,-10.8 -6.06,-3.27 -11.45,-5.94 -11.97,-5.94 -1.84,0 6.01,13.61 12.49,21.64 12.34,15.32 26.62,26.85 44.23,35.72 4.78,2.4 10.75,4.91 17.3,7.32 13.49,5.11 29.11,9.49 47.56,13.5 l 6,1.31 -5,0.33 c -1.65,0.11 -3.73,0.11 -6.18,-0.01 -10.55,-0.91 -20.91,-2.17 -31.45,-3.85 -14.56,-2.43 -31.05,-5.79 -46.25,-9.58 -7.63,-1.9 -14.13,-3.21 -14.44,-2.9 -0.89,0.9 9.6,11.12 17.69,17.24 6.7,5.07 13.9,9.46 21.59,13.16 7.54,3.64 15.55,6.62 24.04,8.95 3.14,0.86 7.06,1.73 11.36,2.55 v 0 c 7.32,1.5 15.16,2.69 23.64,3.6 12.42,1.33 15.04,1.9 13.89,2.98 -0.42,0.39 -4.93,1.03 -11.44,1.72 v 0.01 c -8.17,0.8 -15.3,1.42 -21.78,1.91 -4.18,0.3 -8.38,0.58 -12.34,0.8 -1.52,0.08 -3.02,0.15 -4.49,0.22 -8.44,0.37 -15.34,0.96 -15.34,1.29 0,1.36 13.44,8.57 22,11.81 18.38,6.96 37.93,9.46 57.36,7.35 5.98,-0.65 11.1,-0.95 11.38,-0.67 1.2,1.2 -18.61,8.63 -38.99,14.61 -4.26,1.26 -7.75,2.61 -7.75,3.02 0,1.26 13.41,5.78 22.01,7.41 5.07,0.96 13.77,1.56 22.72,1.56 h 14.5 l -0.59,5.25 c -0.33,2.89 -1.11,10.71 -1.75,17.38 l -1.15,12.12 2.87,5.38 c 3.13,5.84 12.83,20.68 18.22,27.87 12.99,17.32 36.8,39.58 60.09,56.19 7.46,5.32 9.62,5.96 8.71,2.56 z m 77.72,-201.56 c -3.22,-2.68 -7.98,-6.86 -10.58,-9.28 l -4.73,-4.41 -0.16,-31.5 -0.15,-31.5 2.71,0.2 c 3.51,0.26 24.16,10.45 28.06,13.86 1.65,1.43 3.63,2.96 4.39,3.39 0.77,0.43 1.08,1.29 0.7,1.91 -0.49,0.79 -1.42,0.64 -3.17,-0.51 -1.37,-0.89 -2.81,-1.3 -3.2,-0.9 -0.68,0.68 0.46,1.76 4.37,4.11 1.14,0.69 1.53,1.69 1.1,2.8 -0.54,1.41 -1.04,1.52 -2.73,0.62 -1.13,-0.61 -2.83,-0.94 -3.76,-0.73 -1.26,0.29 -0.73,0.98 2.05,2.67 5.22,3.17 3.28256,3.78099 -0.4,4.44 -7.1743,-2.9843 -4.6,0.88 0.72,3.1 4.87,2.04 4.21665,6.35724 -0.57,4.54 -8.05488,-3.05802 -5.38,1.67 -1.25,2.54 3.91,0.82 5.75,1.96 5.75,3.57 0,0.98 -1.11,1.32 -3.82,1.16 -3.14,-0.19 -8.56546,-2.32273 -3.49,1.5 1.41137,0.79235 1.71304,1.18471 3.49,2.04 5.96,0.58 7,5.19 1.18,5.19 -4.27,0 -3.14,2.34 1.48,3.09 2.03,0.33 3.96,0.87 4.29,1.21 1.33,1.33 -0.71,3.7 -3.18,3.7 -4.37,0 -2.22,2.45 2.63,3 4.92,0.56 6.14,3 1.99,3.98 -1.33,0.32 -2.62,1.16 -2.86,1.88 -0.33,1 0.6,1.14 4.04,0.63 3.72,-0.56 4.58,-0.38 5.14,1.09 0.37,0.96 0.32,2.06 -0.11,2.44 -1.16,1.01 -9.01,2.82 -15.28,3.52 -3.03,0.33 -6.24,0.81 -7.15,1.07 -0.99,0.28 -4.01,-1.5 -7.5,-4.42 z m -98.85,4.34 c -0.55,-0.17 -4.38,-0.86 -8.5,-1.52 -4.12,-0.67 -8.4,-1.57 -9.5,-2.02 -1.1,-0.44 -2.87,-1.09 -3.92,-1.43 -1.82,-0.6 -1.79,-0.72 0.43,-2.28 1.3,-0.91 3.7,-1.68 5.34,-1.72 4.07,-0.08 4.34,-1.86 0.51,-3.31 -2.64,-0.99 -2.95,-1.43 -1.92,-2.68 0.8,-0.97 2.21,-1.29 4.03,-0.93 3.67,0.74 4.94,-1.34 1.59,-2.62 -3.83,-1.45 -3.31,-4.02 0.82,-4.02 1.86,0 3.91,-0.64 4.56,-1.43 0.99,-1.19 0.62,-1.49 -2.12,-1.75 -2.55,-0.25 -3.32,-0.79 -3.32,-2.32 0,-1.48 0.78,-2.09 3,-2.34 3.39,-0.38 5.75,-1.95 4.93,-3.28 -0.3,-0.49 -1.62,-0.62 -2.93,-0.29 -1.31,0.33 -2.86,0.3 -3.45,-0.06 -1.78,-1.1 0.76,-4.53 3.36,-4.53 1.29,0 2.88,-0.65 3.54,-1.44 0.99,-1.19 0.56,-1.48 -2.63,-1.75 -4.87,-0.4 -5.07,-2.71 -0.38,-4.29 5.21,-1.75 5.34,-3.91 0.18,-3.04 -5.43,0.92 -4.64773,-4.72876 0.60227,-7.91876 2.78,-1.69 1.49804,-1.5845 0.50321,-1.03481 -2.83035,0.5413 -2.80678,0.8271 -3.93678,1.4371 -1.69,0.9 -2.32258,1.01097 -2.86258,-0.40903 -0.38,-0.98 -1.7068,-1.94419 -1.0468,-2.16419 0.64,-0.21 3.55002,-2.7426 4.9326,-3.69421 2.21967,-2.29 0.0587,-0.73804 -4.0413,1.39196 -4.47,2.31 -2.9345,0.0619 2.79938,-3.58806 2.19,-1.65 4.53,-3.46 5.21,-4.02 3.84,-3.21 26.04,-12.83 27.11,-11.76 0.34,0.34 0.6,14.38 0.58,31.2 -0.03,22.46 -0.36,31 -1.25,32.16 -1.86,2.4 -19.71,17.93 -20.51,17.84 -0.39,-0.04 -1.16,-0.22 -1.71,-0.39 z m 35.2,-60.28 c 0.21,-17.46 0.36,-32.31 0.34,-33 -0.03,-0.96 4.21,-1.25 17.96,-1.25 h 18 v 32.5 c 0,20.22 -0.36,32.5 -0.97,32.5 -0.78,0 -7.11,-4.93 -9.03,-7.05 -1.6,-1.76 -7.06,-4.95 -8.46,-4.95 -0.91,0 -5.12,2.92 -9.35,6.49 -4.23,3.57 -7.95,6.49 -8.27,6.5 -0.33,0.01 -0.42,-14.28 -0.22,-31.74 z m 65.97,234.01 c -0.25,-0.42 -0.09,-2.79 0.34,-5.26 0.43,-2.47 2.28,-13.28 4.09,-24.01 l 3.3,-19.51 10.37,-6.49 c 5.7,-3.57 11.12,-7.17 12.04,-8.01 0.93,-0.83 3.04,-2.55 4.69,-3.83 3.86,-2.98 14.8,-13.49 20.18,-19.38 2.3,-2.51 4.42,-4.34 4.7,-4.05 0.68,0.67 -5.33,12.6 -9.52,18.91 -2.65,4 -8.48,11.44 -17.5,22.37 -0.69,0.83 -5.09,5.86 -9.8,11.19 -4.71,5.33 -8.19,9.92 -7.73,10.2 0.15,0.1 0.47,0.02 0.93,-0.21 1.09,-0.51 2.92,-1.75 4.82,-3.29 2.33,-1.9 6.33,-5.6 10.78,-9.89 5.26,-4.98 10.87,-10.57 15.36,-15.39 3.15,-3.29 5.67,-6.05 6.93,-7.65 6.46,-8.19 6.58,-5.25 3.24,1.72 -2.74,5.28 -6.83,12.12 -10.33,17.03 v 0 c -0.37,0.51 -0.74,1.02 -1.12,1.52 -4.53,6.04 -12.38,14.61 -20.31,22.59 -12.14,12.22 -24.48,23.07 -25.46,21.44 z M 457.5,660.77 c -6.48,-5.57 -26.54,-25.46 -33.05,-32.77 -3.42,-3.84 -9.31,-12.61 -13.9,-20.2 -2.68,-4.62 -4.55,-8.48 -4.55,-9.82 0,-0.59 6.19,5.13 13.75,12.72 12.93,12.97 23.39,22.61 28.16,25.95 4.12,2.88 2.16,-0.91 -3.66,-7.09 -8.46,-9 -12.14,-13.22 -18.78,-21.56 -3.28,-4.12 -6.23,-7.72 -6.55,-8 -1.11,-0.94 -7.85,-11.93 -10.39,-16.93 -4.3,-8.51 -2.85,-8.36 5.72,0.58 10.34,10.78 22.73,20.79 33.82,27.32 l 8.57,5.05 1.78,9.74 c 0.98,5.36 2.41,13.12 3.17,17.24 0.77,4.12 1.85,10.29 2.41,13.7 0.56,3.4 1.29,6.89 1.62,7.75 1.13,2.96 -2.1,1.5 -8.12,-3.68 z M 592.62883,485.28883 c -0.4,-0.39 0.8488,-1.21011 1.6988,-2.51011 1.5,-2.29 1.46237,-3.77872 -0.31763,-3.77872 -0.48,0 -0.7487,1.13229 -1.51,2 -0.67765,0.77235 -1.99833,0.5802 -2.52833,0.5802 -1.81,0 -1.21167,-1.6502 0.40833,-3.4502 0.89,-0.98 1.62,-2.31 1.62,-2.96 0,-1.73 0.19352,-1.69304 -1.27109,-1.89273 -1.06539,0.61167 -4.9341,2.30911 -6.0441,0.22911 -0.23089,-0.75863 1.32891,-2.28235 2.39519,-3.09638 2.59,-2.75 1.81,-4.45 -1.17,-2.59 -2,1.25 -3.91,0.84 -3.91,-0.84 0,-0.49 1.17,-1.99 2.61,-3.32 1.68,-1.56 2.19,-2.56 1.54,-3.06 -0.23,-0.67 -1.16,-0.75 -2.52,0.3 -0.05,0.03 -0.09,0.07 -0.13,0.1 -2.59038,2.15865 -5.09405,-1.52759 -1.59,-4.66 0.47,-0.22 1.02,-0.34 1.66,-0.34 2.33333,0 3.86597,-2.64055 2.1974,-3.29962 -1.04726,-0.41366 -2.3868,-0.24589 -4.1774,0.22962 -0.15,0.12 -0.28,0.22 -0.41,0.31 -2.83,0.09 -2.05,-2.66 1.26,-3.23 0.5,-0.09 0.92,-0.19 1.29,-0.3 1.63,-0.38 2.02,-1.12 1.26,-1.77 -0.41,-0.38 -1.26,-0.73 -2.55,-0.95 -4.2,-0.73 -3.94,-3.54 0.31,-3.34 3.87,0.17 4.24,-1.24 0.75,-2.83 -4.13,-1.88 -3.14,-3.82 1.75,-3.4 3.61,0.3 4.89,1.09 8.6,5.22 6.86,7.66 13.06,17.91 17.34,28.71 4.61,11.64 4.56,11.78 -5.1,13.6 -5.81,1.1 -6.51,1.05 -7.39,-0.52 -0.89,-1.59 -1.33168,-1.88821 -2.85168,0.14179 -0.91,1.2 -2.82949,1.11704 -3.21949,0.71704 z M 428.74,484.8 c -1.47,-2.17 -1.64,-2.2 -2.9,-0.53 -1.2,1.58 -1.95,1.65 -7.34,0.6 -3.3,-0.64 -6.53,-1.58 -7.18,-2.08 -2.91,-2.26 8.34,-25.31 18.46,-37.81 6.84,-8.44 15.65206,-14.55827 9.88291,-8.15452 -0.91319,1.01363 -3.25811,2.47485 -1.16811,1.52485 4.54807,-3.32938 7.4852,-0.67291 4.2552,1.67709 -4.78905,2.78258 -4.86583,2.61481 -1.11583,1.86481 4.36,-0.87 6.08583,2.90777 1.89583,4.65777 -3.78,1.58 -3.91,3.76 -0.19,3.25 1.39,-0.19 2.16,0.24 2.16,1.2 0,0.9 -1.12,1.63 -2.81,1.82 -3.24,0.37 -3.14,2.52 0.14,3 1.42,0.21 2.17,1.03 2.17,2.37 0,1.76 -0.45,1.97 -3,1.46 -3.55,-0.71 -4.25,1.61 -1,3.35 2.04,1.09 2.72,4.44 1.11,5.43 -0.48,0.3 -1.44,-0.12 -2.12,-0.94 -0.68,-0.82 -1.63,-1.49 -2.11,-1.49 -1.38,0 -1.56125,3.09875 -0.0113,4.37875 C 439.56125,471.9975 439.48,475 438.01,475 c -0.42,0 -1.32,-0.67 -2,-1.49 -1.96,-2.37 -3.31,-0.61 -1.56,2.05 1.71,2.62 2.04,6.02 0.66,6.87 -0.49,0.31 -1.18,-0.57 -1.52,-1.94 -0.35,-1.37 -1.08,-2.49 -1.64,-2.49 -1.68,0 -2.18,2.7 -0.93,5.03 1.69,3.16 -0.29,4.69 -2.28,1.77 z m 118.81,52.23 c 0.27,-0.06 0.55,-0.12 0.83,-0.18 13.55,-2.99 23.05,-5.67 34.36,-9.7 10.35,-3.5 18.88,-6.98 22.67,-9.43 2.83,-1.42 4.71939,-2.50993 4.59,-2.92 -0.37812,-1.19833 -6.5646,0.67804 -8.83,1.51 -0.55,0.16 -1.13,0.34 -1.75,0.53 -1.91,0.59 -4.53,1.38 -7.04,2.13 v 0 l -0.12,0.03 c -1.74,0.52 -3.42,1.01 -4.76,1.39 l -0.08,0.02 v 0 c -3.33,0.95 -9.56,2.79 -13.92,4.11 -4.4,1.34 -14.3,4.28 -22,6.55 -2.54,0.75 -5.12,1.54 -7.53,2.3 -4.38,1.24 -8.29,2.28 -10.22,2.7 -3.8,0.82 -5.75,1.74 -5.75,2.7 0,1.69 6,1.19 18.75,-1.57 0.27,-0.05 0.54,-0.11 0.8,-0.17 z M 497,539.16 c 0,-0.57 -2.75,-1.62 -16.91,-6 l -0.02,-0.01 c -7.24,-2.24 -17.44,-5.34 -31.73,-9.67 h -0.02 c -4.41,-1.34 -8.79,-2.67 -11.82,-3.59 -1.82,-0.55 -3.72,-1.14 -5.54,-1.71 h -0.01 c -3.9,-1.26 -7.6,-2.51 -9.47,-3.24 -5.35,-2.07 -7.48,-2.41 -7.48,-1.18 0,0.67 4.85,3.16 11.2,5.98 l 0.08,0.04 c 2.67,1.29 6.03,2.68 9.82,4.11 v 0 c 3.09,1.22 6.15,2.36 8.9,3.3 2.81,0.96 6.77,2.16 11.2,3.44 11.27,3.43 22.83,6.44 30.93,8.02 1.41,0.3 2.56,0.52 3.37,0.63 0.29,0.04 0.57,0.08 0.85,0.12 2.48,0.38 4.39,0.53 5.51,0.4 0.01,0 0.01,-0.01 0.02,-0.01 0.78,-0.07 1.12,-0.28 1.12,-0.63 z M 247.85,801.5 c 0,7.06 0.03,12.12 0.1,12.75 0.1,0.96 -0.3,1.75 -0.89,1.75 -0.58,0 -1.1,-0.34 -1.14,-0.75 -0.05,-0.41 -0.2,-1.65 -0.35,-2.75 -0.16,-1.21 -2.95,-8.64 -6.35,-17.22 4.12,10.06 7.48,17.41 7.89,17.15 0.31,-0.19 0.58,-4.53 0.74,-10.93 z m -14.23,-20.11 c -2.47,-6.01 -4.69,-11.23 -5.92,-13.81 1.2,2.51 3.37,7.57 5.92,13.81 z"
     fill="#bca279"
     id="path3"
     sodipodi:nodetypes="cccccccccccccccsccccccccccccsccccccccccscccsccsccccccssccscccccccccsccccssccsccccccscccsccccccccsccsccccscsccccccccsccccccccccccccccccsccsccccsccccccccccccccccccccscsccsccccccccccccccccccsccscscccccssccsscccccccccccccccscccscccccccccccsccscccccsscccccccssccccccccccscccccsscccccscccsccccccccccccscccccssccccccccccccccccccccscccscccccccccscccccccccccsccccscsscccccccccccccccsssscccccccccccccsscccccccsccscscsccccccccccccccccccccccccccscscccsccscccccccccscccccccccsccsccscscccccccccccccscccsccscsscsscccscccccccccscccccccssccccccsccccccccccccccccssscsccccscccccssccccccccccccccccccccscccccsccssccsscsccccsccccccsccsccccsccccsccsccccccccsccsscccccccsccscccccccc" />
</svg>
