<?xml version="1.0" encoding="UTF-8"?>
<svg id="Layer_2" data-name="Layer 2" xmlns="http://www.w3.org/2000/svg" viewBox="0 0 549.07 150.88">
  <defs>
    <style>
      .cls-1 {
        fill: #00aeef;
      }

      .cls-2 {
        fill: #141844;
      }
    </style>
  </defs>
  <g id="Layer_1-2">
    <g>
      <g>
        <g>
          <path class="cls-1" d="M205.31,130.95c0,8.4-5.04,13.7-13,13.7s-12.96-5.3-12.96-13.7,5.05-13.7,12.96-13.7,13,5.3,13,13.7ZM187.08,130.95c0,4.75,1.88,7.44,5.23,7.44s5.27-2.69,5.27-7.44-1.88-7.44-5.27-7.44-5.23,2.69-5.23,7.44Z"/>
          <path class="cls-1" d="M226.55,117.84c6.78,0,9.72,2.76,9.72,7.51,0,3.24-1.84,5.49-4.9,6.41v.07c1.92.7,2.87,2.02,4.16,5.45l2.43,6.78h-7.81l-1.88-5.63c-.88-2.54-1.88-3.46-4.2-3.46h-1.84v9.1h-7.37v-26.22h11.67ZM222.24,129.62h3.13c2.69,0,3.72-1.25,3.72-3.24,0-2.14-1.4-3.02-3.9-3.02h-2.95v6.26Z"/>
          <path class="cls-1" d="M258.81,124.02v20.03h-7.36v-20.03h-7.77v-6.19h22.9v6.19h-7.77Z"/>
          <path class="cls-1" d="M291.1,144.06v-10.38h-8.58v10.38h-7.37v-26.22h7.37v9.65h8.58v-9.65h7.36v26.22h-7.36Z"/>
          <path class="cls-1" d="M334,130.95c0,8.4-5.04,13.7-13,13.7s-12.96-5.3-12.96-13.7,5.05-13.7,12.96-13.7,13,5.3,13,13.7ZM315.77,130.95c0,4.75,1.88,7.44,5.23,7.44s5.27-2.69,5.27-7.44-1.88-7.44-5.27-7.44-5.23,2.69-5.23,7.44Z"/>
          <path class="cls-1" d="M353.44,117.84c8.98,0,14.07,4.71,14.07,13.11s-5.08,13.11-14.07,13.11h-9.91v-26.22h9.91ZM350.9,137.87h2.32c4.27,0,6.59-2.47,6.59-6.92s-2.32-6.92-6.59-6.92h-2.32v13.85Z"/>
          <path class="cls-1" d="M402.37,130.95c0,8.4-5.04,13.7-13,13.7s-12.96-5.3-12.96-13.7,5.05-13.7,12.96-13.7,13,5.3,13,13.7ZM384.14,130.95c0,4.75,1.88,7.44,5.23,7.44s5.27-2.69,5.27-7.44-1.88-7.44-5.27-7.44-5.23,2.69-5.23,7.44Z"/>
          <path class="cls-1" d="M426.56,144.06l-4.09-10.05c-1.33-3.31-2.61-6.78-3.76-10.16h-.07c.22,3.57.29,7.14.29,10.72v9.5h-7.03v-26.22h10.72l4.05,10.05c1.36,3.31,2.65,6.78,3.76,10.16h.07c-.18-3.57-.29-7.14-.29-10.72v-9.5h7.03v26.22h-10.68Z"/>
          <path class="cls-1" d="M460.95,124.02v20.03h-7.36v-20.03h-7.77v-6.19h22.9v6.19h-7.77Z"/>
          <path class="cls-1" d="M477.3,144.06v-26.22h7.37v26.22h-7.37Z"/>
          <path class="cls-1" d="M518.73,127.59h-7.73c-.29-2.58-1.77-4.09-4.24-4.09-2.95,0-4.82,2.8-4.82,7.44s1.88,7.44,4.82,7.44c2.39,0,4.01-1.58,4.27-4.31h7.84c-.55,6.85-5.19,10.57-12.12,10.57-7.81,0-12.52-5.19-12.52-13.7s4.75-13.7,12.52-13.7c7.07,0,11.67,3.87,11.97,10.35Z"/>
          <path class="cls-1" d="M548.52,125.79h-7.73c0-1.91-1.1-2.98-3.24-2.98-1.84,0-2.91.81-2.91,2.03,0,1.51,1.22,1.95,4.75,2.8,5.16,1.25,9.68,2.76,9.68,8.54,0,5.23-4.2,8.47-11.16,8.47s-11.31-3.31-11.31-9.1h7.95c0,2.21,1.14,3.35,3.61,3.35,1.99,0,3.13-.88,3.13-2.25,0-1.66-1.29-2.03-4.6-2.87-5.08-1.36-9.57-2.69-9.57-8.32,0-4.97,3.98-8.21,10.79-8.21s10.61,2.91,10.61,8.54Z"/>
        </g>
        <g>
          <path class="cls-2" d="M180.03,92.36V10.51c0-1.6.86-2.46,2.46-2.46h13.89c1.6,0,2.46.86,2.46,2.46v30.6h6.14V10.51c0-1.6.86-2.46,2.46-2.46h13.89c1.6,0,2.46.86,2.46,2.46v81.85c0,1.6-.86,2.46-2.46,2.46h-13.89c-1.6,0-2.46-.86-2.46-2.46v-34.53h-6.14v34.53c0,1.6-.86,2.46-2.46,2.46h-13.89c-1.6,0-2.46-.86-2.46-2.46Z"/>
          <path class="cls-2" d="M232.13,51.93c0-29.86.86-45.1,22.98-45.1s22.61,15.61,22.61,45.1-.61,44.24-22.61,44.24-22.98-16.22-22.98-44.24ZM257.45,77.86c.98-2.46,1.11-13.52,1.11-26.55,0-14.13,0-24.46-1.35-26.67-.49-.86-1.23-1.11-2.09-1.11s-1.6.37-1.97,1.11c-1.23,2.09-1.47,12.54-1.47,26.67,0,13.03.12,24.09,1.11,26.55.37.98,1.23,1.48,2.33,1.48s1.97-.49,2.34-1.48Z"/>
          <path class="cls-2" d="M285.96,92.36V10.51c0-1.6.86-2.46,2.46-2.46h32.57c1.6,0,2.46.86,2.46,2.46v11.8c0,1.6-.86,2.46-2.46,2.46h-16.22v17.94h14.99c1.6,0,2.46.86,2.46,2.46v11.8c0,1.6-.86,2.46-2.46,2.46h-14.99v32.94c0,1.6-.86,2.46-2.46,2.46h-13.89c-1.6,0-2.46-.86-2.46-2.46Z"/>
          <path class="cls-2" d="M329.21,92.36V10.51c0-1.6.86-2.46,2.46-2.46h32.57c1.6,0,2.46.86,2.46,2.46v11.8c0,1.6-.86,2.46-2.46,2.46h-16.22v17.94h14.99c1.6,0,2.46.86,2.46,2.46v11.8c0,1.6-.86,2.46-2.46,2.46h-14.99v32.94c0,1.6-.86,2.46-2.46,2.46h-13.89c-1.6,0-2.46-.86-2.46-2.46Z"/>
          <path class="cls-2" d="M372.59,92.36V10.51c0-1.6.86-2.46,2.46-2.46h13.89c1.6,0,2.7.86,3.32,2.34l5.53,15.36c2.46,6.76,5.04,12.04,5.28,22.49h1.35c.12-10.45,2.34-15.12,4.92-22.37l5.65-15.48c.61-1.48,1.72-2.34,3.32-2.34h13.89c1.6,0,2.46.86,2.46,2.46v81.85c0,1.6-.86,2.46-2.46,2.46h-13.89c-1.6,0-2.46-.86-2.46-2.46v-16.34c0-8.97-1.35-13.4,1.84-22.74h-1.35l-8.48,24.95c-.49,1.47-1.6,2.33-3.19,2.33h-2.09c-1.6,0-2.7-.86-3.19-2.33l-8.48-24.95h-1.35c2.58,8.23,1.84,13.76,1.84,22.74v16.34c0,1.6-.86,2.46-2.46,2.46h-13.89c-1.6,0-2.46-.86-2.46-2.46Z"/>
          <path class="cls-2" d="M442.03,94.7c-1.6,0-2.33-.86-1.97-2.46l15.48-81.72c.37-1.6,1.35-2.46,2.95-2.46h16.47c1.6,0,2.58.86,2.95,2.46l15.49,81.72c.37,1.6-.37,2.46-1.97,2.46l-16.1.12c-1.6,0-2.58-.86-2.7-2.46l-1.35-12.41h-9.09l-1.35,12.41c-.12,1.6-1.11,2.46-2.7,2.46l-16.1-.12ZM469.8,61.02c-1.11-8.48-2.33-17.08-2.33-25.93h-1.35c-.25,8.85-1.35,17.45-2.46,25.93h6.14Z"/>
          <path class="cls-2" d="M498.31,92.36V10.51c0-1.6.86-2.46,2.46-2.46h14.01c1.6,0,2.7.86,3.19,2.34l11.68,38.59h1.35c-2.21-9.09-2.09-14.5-2.09-22.12V10.51c0-1.6.86-2.46,2.46-2.46h15.24c1.6,0,2.46.86,2.46,2.46v81.85c0,1.6-.86,2.46-2.46,2.46h-14.01c-1.6,0-2.7-.86-3.2-2.33l-11.43-38.22h-1.35c2.33,8.73,1.84,14.75,1.84,21.75v16.34c0,1.6-.86,2.46-2.46,2.46h-15.24c-1.6,0-2.46-.86-2.46-2.46Z"/>
        </g>
      </g>
      <g>
        <path class="cls-2" d="M75.44,150.88C33.84,150.88,0,117.04,0,75.44S33.84,0,75.44,0s75.44,33.84,75.44,75.44-33.84,75.44-75.44,75.44M75.44,5.63C36.95,5.63,5.63,36.95,5.63,75.44s31.32,69.81,69.81,69.81,69.81-31.32,69.81-69.81S113.94,5.63,75.44,5.63"/>
        <path class="cls-1" d="M30.91,63.71c8.33,10.4,27.25,14.94,44.53,14.94s36.21-4.54,44.53-14.94c-11.06,5.72-28.17,10.37-44.53,10.37s-33.48-4.65-44.53-10.37Z"/>
        <path class="cls-2" d="M75.44,73.1c9.09,0,19.15-1.54,28.36-4.18v-25.23c0-1.16-.94-2.1-2.1-2.1h-14.75c-1.16,0-2.1.94-2.1,2.1v22.28h-19.1v-22.28c0-1.16-.94-2.1-2.1-2.1h-14.75c-1.16,0-2.1.94-2.1,2.1v25.15c9.28,2.69,19.45,4.25,28.63,4.25Z"/>
        <path class="cls-2" d="M75.44,79.64c-9.1,0-19.6-1.31-28.63-4.52v32.07c0,1.16.94,2.1,2.1,2.1h14.75c1.16,0,2.1-.94,2.1-2.1v-22.28h19.1v22.28c0,1.16.94,2.1,2.1,2.1h14.75c1.16,0,2.1-.94,2.1-2.1v-31.97c-8.96,3.14-19.35,4.42-28.36,4.42Z"/>
      </g>
    </g>
  </g>
</svg>